<svg xmlns="http://www.w3.org/2000/svg" width="1024" height="1024" viewBox="0 0 1024 1024"><path fill-rule="evenodd" d="M 276.114807 705.229614 C 169.46077 705.229614 83 618.768799 83 512.114807 C 83 405.460754 169.46077 319 276.114807 319 C 336.606476 319 390.599792 346.816223 426.008636 390.352356 C 441.239288 381.786133 474.896179 365.65863 512.486023 365.65863 C 549.533936 365.65863 582.763855 381.329712 598.292603 389.982727 C 633.706055 346.658997 687.565002 319 747.885193 319 C 854.539307 319 941 405.460754 941 512.114807 C 941 618.768799 854.539307 705.229614 747.885193 705.229614 C 641.231201 705.229614 554.770386 618.768799 554.770386 512.114807 C 554.770386 485.768494 560.048767 460.655762 569.601807 437.772888 C 555.634583 429.968933 536.240967 422.685791 512.486023 422.685791 C 488.28418 422.685791 468.604828 430.245056 454.580444 438.213379 C 464.017853 460.978088 469.229614 485.937195 469.229614 512.114807 C 469.229614 618.768799 382.76886 705.229614 276.114807 705.229614 Z M 274.818726 658.570984 C 355.70401 658.570984 421.274933 593.000122 421.274933 512.114807 C 421.274933 431.229553 355.70401 365.65863 274.818726 365.65863 C 193.933456 365.65863 128.362534 431.229553 128.362534 512.114807 C 128.362534 593.000122 193.933456 658.570984 274.818726 658.570984 Z M 747.885193 658.570984 C 828.770447 658.570984 894.34137 593.000122 894.34137 512.114807 C 894.34137 431.229553 828.770447 365.65863 747.885193 365.65863 C 666.999939 365.65863 601.429016 431.229553 601.429016 512.114807 C 601.429016 593.000122 666.999939 658.570984 747.885193 658.570984 Z M 326.907166 594.919189 C 314.715027 594.919189 306.227722 588.127808 305.301758 574.855347 L 305.301758 566.367554 L 304.375275 566.367554 C 295.115387 583.961304 274.435394 594.301514 253.75502 594.301514 C 222.271484 594.301514 198.350449 573.93042 198.350449 544.144531 C 198.350449 514.049927 221.49971 496.611206 262.860443 494.141907 L 304.529663 491.671265 L 304.529663 480.715393 C 304.529663 465.282349 293.726593 456.330505 276.750183 456.330505 C 263.014709 456.330505 254.681122 460.805481 244.649612 473.769287 C 239.711014 479.325195 234.001175 482.1026 226.747604 482.1026 C 215.7901 482.1026 207.919113 475.00415 207.919113 464.818298 C 207.919113 461.268677 208.689499 458.027222 210.232803 454.631958 C 217.949356 434.877563 244.496078 422.685791 278.757568 422.685791 C 321.198608 422.685791 348.823975 444.600464 348.823975 477.935974 L 348.823975 572.232788 C 348.823975 587.202942 339.716644 594.919189 326.907166 594.919189 Z M 706.805786 594.919189 C 690.141235 594.919189 678.404724 591.007813 671.596619 583.183594 C 664.788574 575.359375 661.38501 565.349854 661.38501 553.15625 C 661.38501 544.620728 662.858154 537.610107 665.80481 532.122925 C 668.751709 526.635864 672.662903 522.16394 677.540344 518.709106 C 682.417786 515.254272 688.20929 512.665161 694.915833 510.937683 C 701.622253 509.210266 708.635498 507.837769 715.951721 506.821655 C 726.316162 505.399109 734.596313 503.976318 740.794739 502.553711 C 746.993225 501.131104 751.666077 499.150452 754.816162 496.610046 C 757.966125 494.069702 759.949402 490.71637 760.76239 486.550293 C 761.575378 482.384094 761.97998 476.846436 761.97998 469.936768 C 761.97998 459.16571 759.033997 451.695007 753.140381 447.52887 C 747.246826 443.362732 738.712769 441.281433 727.535339 441.281433 C 721.235352 441.281433 717.220947 442.04303 715.49353 443.567261 C 713.766052 445.091492 712.901367 446.868591 712.901367 448.900879 C 712.901367 450.323547 713.512085 451.645691 714.731567 452.865051 C 715.950928 454.084412 717.88147 454.99939 720.523376 455.60907 C 724.588013 456.421997 728.041687 458.098694 730.886902 460.638977 C 733.732117 463.179382 735.154846 467.090576 735.154846 472.374512 C 735.154846 479.893799 732.259094 485.635193 726.467102 489.598083 C 720.675171 493.561035 712.39502 495.541809 701.624023 495.541809 C 690.446594 495.541809 682.010559 493.153809 676.320251 488.37793 C 670.629883 483.602051 667.786926 476.337646 667.786926 466.582642 C 667.786926 454.795593 673.983093 444.532166 686.379944 435.793335 C 698.776733 427.054688 718.999512 422.685791 747.0448 422.685791 C 761.067322 422.685791 772.396606 424.007874 781.033752 426.649963 C 789.670898 429.291809 796.427734 433.049927 801.305176 437.927307 C 806.182617 442.804749 809.435364 448.699341 811.061157 455.60907 C 812.686951 462.51886 813.49884 470.137817 813.49884 478.470093 C 813.49884 484.566956 813.448547 490.765686 813.346985 497.065674 C 813.245422 503.365662 813.091919 509.310669 812.888794 514.899292 C 812.685486 520.488098 812.532166 525.417419 812.430603 529.685181 C 812.328979 533.953003 812.278748 537.203125 812.278748 539.43866 C 812.278748 544.519287 813.143433 548.279846 814.870911 550.718506 C 816.598267 553.157288 818.986267 554.376343 822.034729 554.376343 C 825.896057 554.376343 828.537964 553.054138 829.96051 550.412231 C 831.383179 547.770264 832.094482 544.215881 832.094482 539.744934 C 832.094482 536.086853 831.129211 531.868835 829.198547 527.093018 C 827.267883 522.317139 826.302673 518.302856 826.302673 515.051208 C 826.302673 512.409302 827.014038 510.124329 828.436584 508.193665 C 829.859253 506.263 832.093933 505.297791 835.142273 505.297791 C 839.613342 505.297791 842.609558 507.328918 844.133789 511.393372 C 845.657959 515.457947 846.422119 523.486694 846.422119 535.477051 C 846.422119 557.831909 843.169495 573.326416 836.666138 581.963501 C 830.162964 590.600586 819.595337 594.919189 804.963013 594.919189 C 792.159729 594.919189 783.472351 591.819763 778.89978 585.621338 C 774.327148 579.422974 771.127319 571.650513 769.298218 562.302185 C 768.891785 559.863403 768.281006 558.033447 767.468018 556.814087 C 766.65509 555.594788 765.435974 554.98645 763.810181 554.98645 C 761.777954 554.98645 760.355225 555.594788 759.542236 556.814087 C 758.72937 558.033447 758.221558 559.863403 758.018372 562.302185 C 757.205444 571.040833 752.582825 578.662476 744.148865 585.16571 C 735.714966 591.668945 723.26709 594.919189 706.805786 594.919189 Z M 268.571259 561.737671 C 288.325653 561.737671 304.529663 548.929199 304.529663 531.026855 L 304.529663 518.987549 L 269.652161 521.149353 C 252.830078 522.383972 243.259872 529.947266 243.259872 541.676392 C 243.259872 554.022888 253.446808 561.737671 268.571259 561.737671 Z M 731.496948 554.070068 C 739.829224 554.070068 746.942993 551.327637 752.836609 545.840576 C 758.730164 540.353394 761.676208 533.239624 761.676208 524.500916 C 761.676208 522.062195 761.118103 519.928101 760.000427 518.098999 C 758.88269 516.269958 756.798767 515.357544 753.750427 515.357544 C 741.963257 515.357544 732.107117 517.592285 724.181274 522.063171 C 716.255371 526.53418 712.291321 532.225159 712.291321 539.134888 C 712.291321 545.028442 714.221802 548.990051 718.08313 551.022278 C 721.944458 553.054565 726.416321 554.070068 731.496948 554.070068 Z"/></svg>